<svg xmlns="http://www.w3.org/2000/svg" data-name="Layer 1" viewBox="0 0 100 125" x="0px" y="0px"><defs><style>.cls-1{fill-rule:evenodd;}</style></defs><title>a</title><path class="cls-1" d="M62.226,54.1a9.953,9.953,0,0,1,5.391-5.419l.243-.1h.01a9.991,9.991,0,0,1,12.806,5.476l.1.243v.01A9.985,9.985,0,1,1,62.226,54.1ZM68.61,51.08a7.389,7.389,0,1,0,9.666,3.969l-.1-.2v-.029a7.381,7.381,0,0,0-9.561-3.738ZM77.8,75.4l1.159,2.768a4.9,4.9,0,0,1,.813-.453l.058-.024h0a4.657,4.657,0,0,1,.886-.266l-1.156-2.762L77.8,75.4ZM26.457,33.2H17.094v9.362h9.363V37.64L22.942,41a1.3,1.3,0,0,1-1.69.133L18.492,39.1a1.3,1.3,0,0,1,1.536-2.094l1.883,1.381,4.546-4.341V33.2ZM15.793,30.6H27.758a1.3,1.3,0,0,1,1.3,1.239,1.3,1.3,0,0,1,1.16,2.211L29.06,35.154v8.711a1.3,1.3,0,0,1-1.3,1.3H15.793a1.3,1.3,0,0,1-1.3-1.3V31.9a1.3,1.3,0,0,1,1.3-1.3Zm61.3,52.984c.039.121.083.241.132.361l2.806,6.835v0l0,.013.005,0a2.65,2.65,0,0,0,3.446,1.421h0l.012-.006.006,0,3.857-1.629A2.68,2.68,0,0,0,88.8,87.1l-1.445-3.519h.879a4.73,4.73,0,0,0,4.719-4.719V12.3a4.73,4.73,0,0,0-4.719-4.719H11.768A4.73,4.73,0,0,0,7.049,12.3V78.863a4.73,4.73,0,0,0,4.719,4.719Zm2.367-1.436a2.149,2.149,0,0,1,.165-.841,2.27,2.27,0,0,1,1.2-1.21l.007,0v0a2.131,2.131,0,0,1,2.758,1.134h0l.014.032h0l.581,1.415a1.264,1.264,0,0,0,.082.2L86.4,88.088a.09.09,0,0,1-.042.105l-3.851,1.626v0l-.013.005v0a.059.059,0,0,1-.037,0,.064.064,0,0,1-.025-.021h0l0-.012h0l-2.8-6.831a2.159,2.159,0,0,1-.158-.656v-.02a1.19,1.19,0,0,0-.007-.134ZM9.652,23.365V12.3a2.127,2.127,0,0,1,2.116-2.116H88.232A2.127,2.127,0,0,1,90.348,12.3V23.365Zm29.287-5.492a1.3,1.3,0,0,1,0-2.6H80.6a1.3,1.3,0,0,1,0,2.6Zm-22.526,0a1.3,1.3,0,1,1,0-2.6h0a1.3,1.3,0,0,1,0,2.6Zm7.242,0a1.3,1.3,0,1,1,0-2.6h0a1.3,1.3,0,0,1,0,2.6Zm7.242,0a1.3,1.3,0,1,1,0-2.6H30.9a1.3,1.3,0,0,1,0,2.6Zm29.879,33.2a1.32,1.32,0,0,1-.1.164,12.7,12.7,0,0,0,.01,13.33,1.387,1.387,0,0,1,.086.138,12.68,12.68,0,0,0,12.682,5.708,1.3,1.3,0,0,1,1.4.783h0l.771,1.847a.406.406,0,0,0,.224.222.415.415,0,0,0,.319,0l2.9-1.211a.411.411,0,0,0,.221-.224.415.415,0,0,0,0-.319l-.771-1.847a1.3,1.3,0,0,1,.465-1.57,12.673,12.673,0,0,0,4.167-15.079h0A12.668,12.668,0,0,0,66.578,46.2h0a12.62,12.62,0,0,0-5.8,4.873ZM54.547,74.507V49.175h3.776v.937a15.279,15.279,0,0,0,0,15.572v8.823Zm-6.378,0V58.687h3.775v15.82Zm-6.378,0V54.984h3.775V74.507Zm-6.378,0V64h3.775V74.507Zm-6.378,0V60.245H32.81V74.507Zm-4.328,2.6a1.3,1.3,0,0,1,0-2.6h1.725V58.944a1.3,1.3,0,0,1,1.3-1.3h6.378a1.3,1.3,0,0,1,1.3,1.3v2.449h3.775V53.682a1.3,1.3,0,0,1,1.3-1.3h6.378a1.3,1.3,0,0,1,1.3,1.3v2.4h3.775v-8.21a1.3,1.3,0,0,1,1.3-1.3h6.378a1.3,1.3,0,0,1,1.04.519A15.237,15.237,0,0,1,65.5,43.837a1.382,1.382,0,0,1,.168-.07,15.274,15.274,0,0,1,19.852,8.166,1.367,1.367,0,0,1,.07.167A15.279,15.279,0,0,1,81.3,69.574l.36.863a1.177,1.177,0,0,1,.071.176,3,3,0,0,1-.038,2.2c-.014.034-.029.069-.045.1l2.051,4.9a4.705,4.705,0,0,1,2.274,2.4l0,0,.014.033v.005l.292.713h1.948a2.127,2.127,0,0,0,2.116-2.116V25.968H9.652v52.9a2.127,2.127,0,0,0,2.116,2.116H77c.037-.147.08-.291.131-.433l-2-4.785c-.091-.028-.18-.06-.268-.1a3.007,3.007,0,0,1-1.637-1.624l-.391-.937a15.312,15.312,0,0,1-11.909-4.15v5.553h2.856a1.3,1.3,0,0,1,0,2.6H24.707ZM58.749,38.326v1.739a1.3,1.3,0,1,0,2.6,0V35.7a1.3,1.3,0,0,0-1.3-1.3H55.38a1.3,1.3,0,1,0,0,2.6h.781l-9.478,6.935-2.573-1.8a1.3,1.3,0,0,0-1.615.1l0,0L35.527,48.6l-3.974-2.2a1.3,1.3,0,0,0-1.331.042h0l-8.365,5.4a1.3,1.3,0,0,0,1.4,2.186l7.715-4.982,4.045,2.243a1.3,1.3,0,0,0,1.57-.137l6.889-6.288,2.414,1.686a1.3,1.3,0,0,0,1.577.032Z"/><text x="0" y="115" fill="#000000" font-size="5px" font-weight="bold" font-family="'Helvetica Neue', Helvetica, Arial-Unicode, Arial, Sans-serif">Created by Happy Girl</text><text x="0" y="120" fill="#000000" font-size="5px" font-weight="bold" font-family="'Helvetica Neue', Helvetica, Arial-Unicode, Arial, Sans-serif">from the Noun Project</text></svg>